<svg xmlns="http://www.w3.org/2000/svg" xmlns:xlink="http://www.w3.org/1999/xlink" viewBox="0 0 62 64"><defs><style>.cls-1{fill:#29abe2;}</style><symbol id="Buscar" data-name="Buscar" viewBox="0 0 35.9 34.8"><path class="cls-1" d="M.3,30.6A1.1,1.1,0,0,1,.4,29L10,20.3a1.1,1.1,0,0,1,1.6.1L15,24.2a1.1,1.1,0,0,1-.1,1.6L5.3,34.5a1.1,1.1,0,0,1-1.6-.1Z"/><path class="cls-1" d="M23.3,0A12.6,12.6,0,1,1,11.4,8.5,12.5,12.5,0,0,1,23.3,0m0,3.4a9.2,9.2,0,1,0,3,.5h0a9.1,9.1,0,0,0-3-.5Z"/></symbol></defs><title>buscar2</title><g id="Capa_2" data-name="Capa 2"><g id="Capa_1-2" data-name="Capa 1"><use width="35.9" height="34.79" transform="scale(1.73 1.84)" xlink:href="#Buscar"/></g></g></svg>